<svg width="200" height="45" viewBox="0 0 200 45" fill="none" xmlns="http://www.w3.org/2000/svg">
<path d="M0 44.9999H32.4865C40.6879 44.9999 47.3365 38.3513 47.3365 30.1499C47.3365 21.9484 40.6879 15.2999 32.4865 15.2999L13.3733 15.2999L0 44.9999Z" fill="#0768A9"/>
<path d="M47.3365 -0.00011923L14.85 -0.00012207C6.64857 -0.000122787 7.16992e-07 6.64845 0 14.8499C-7.16992e-07 23.0513 6.64857 29.6999 14.85 29.6999H33.9632L47.3365 -0.00011923Z" fill="#FFCC00"/>
<path d="M68.3549 26.04C66.5189 26.04 64.9709 25.752 63.7109 25.176C62.4689 24.6 61.5239 23.817 60.8759 22.827C60.2459 21.819 59.9309 20.667 59.9309 19.371H64.7909C64.7909 19.839 64.9169 20.271 65.1689 20.667C65.4389 21.045 65.8349 21.342 66.3569 21.558C66.8789 21.774 67.5449 21.882 68.3549 21.882C69.0569 21.882 69.6509 21.792 70.1369 21.612C70.6409 21.432 71.0189 21.18 71.2709 20.856C71.5409 20.532 71.6759 20.145 71.6759 19.695C71.6759 19.119 71.4329 18.678 70.9469 18.372C70.4609 18.048 69.6419 17.841 68.4899 17.751L67.2209 17.643C65.1869 17.463 63.5669 16.824 62.3609 15.726C61.1549 14.628 60.5519 13.17 60.5519 11.352C60.5519 10.056 60.8489 8.949 61.4429 8.031C62.0549 7.113 62.9099 6.411 64.0079 5.925C65.1059 5.439 66.4019 5.196 67.8959 5.196C69.5159 5.196 70.8839 5.466 71.9999 6.006C73.1339 6.546 73.9979 7.311 74.5919 8.301C75.1859 9.273 75.4829 10.407 75.4829 11.703H70.6229C70.6229 11.271 70.5149 10.875 70.2989 10.515C70.0829 10.155 69.7679 9.876 69.3539 9.678C68.9579 9.462 68.4719 9.354 67.8959 9.354C67.3559 9.354 66.8969 9.444 66.5189 9.624C66.1589 9.786 65.8799 10.02 65.6819 10.326C65.5019 10.632 65.4119 10.974 65.4119 11.352C65.4119 11.856 65.5829 12.288 65.9249 12.648C66.2669 13.008 66.8609 13.224 67.7069 13.296L68.9759 13.404C70.4519 13.53 71.7569 13.854 72.8909 14.376C74.0249 14.88 74.9159 15.573 75.5639 16.455C76.2119 17.337 76.5359 18.417 76.5359 19.695C76.5359 20.973 76.2029 22.089 75.5369 23.043C74.8889 23.997 73.9529 24.735 72.7289 25.257C71.5229 25.779 70.0649 26.04 68.3549 26.04ZM77.2453 25.5L83.5633 5.79H91.6093L98.1433 25.5H92.9593L87.8833 9.3L89.3143 9.84H85.7503L87.2083 9.3L82.2673 25.5H77.2453ZM82.4023 20.937L83.9143 16.833H91.3933L92.9053 20.937H82.4023ZM100.358 25.5V5.628H105.38V25.5H100.358ZM112.238 25.5L106.703 17.13H112.157L118.016 25.5H112.238ZM104.111 19.452V15.591H108.836C109.43 15.591 109.943 15.474 110.375 15.24C110.807 15.006 111.14 14.673 111.374 14.241C111.626 13.809 111.752 13.305 111.752 12.729C111.752 12.135 111.626 11.622 111.374 11.19C111.14 10.758 110.807 10.425 110.375 10.191C109.943 9.957 109.43 9.84 108.836 9.84H104.111V5.628H108.539C110.249 5.628 111.725 5.889 112.967 6.411C114.209 6.915 115.163 7.671 115.829 8.679C116.495 9.669 116.828 10.902 116.828 12.378V12.81C116.828 14.286 116.486 15.519 115.802 16.509C115.136 17.481 114.182 18.219 112.94 18.723C111.716 19.209 110.249 19.452 108.539 19.452H104.111ZM123.707 25.5V9.624H128.729V25.5H123.707ZM118.307 10.164V5.79H134.129V10.164H118.307ZM149.194 25.5V5.79H154.216V25.5H149.194ZM136.666 25.5V5.79H141.688V25.5H136.666ZM140.824 17.751V13.377H150.058V17.751H140.824ZM156.426 25.5L162.744 5.79H170.79L177.324 25.5H172.14L167.064 9.3L168.495 9.84H164.931L166.389 9.3L161.448 25.5H156.426ZM161.583 20.937L163.095 16.833H170.574L172.086 20.937H161.583ZM192.661 25.5L186.262 16.293H183.589L191.554 5.79H197.332L190.204 15.186V13.269L198.709 25.5H192.661ZM179.539 25.5V5.79H184.561V25.5H179.539Z" fill="#0768A9"/>
<path d="M64.5329 39.704C63.8129 39.704 63.1729 39.584 62.6129 39.344C62.0609 39.104 61.5969 38.776 61.2209 38.36C60.8449 37.936 60.5569 37.452 60.3569 36.908C60.1649 36.356 60.0689 35.776 60.0689 35.168V34.952C60.0689 34.392 60.1609 33.848 60.3449 33.32C60.5369 32.792 60.8129 32.316 61.1729 31.892C61.5329 31.468 61.9809 31.132 62.5169 30.884C63.0529 30.636 63.6609 30.512 64.3409 30.512C65.0529 30.512 65.6849 30.648 66.2369 30.92C66.7889 31.184 67.2329 31.556 67.5689 32.036C67.9129 32.516 68.1129 33.072 68.1689 33.704H67.2449C67.1809 33.192 67.0089 32.76 66.7289 32.408C66.4569 32.056 66.1129 31.792 65.6969 31.616C65.2809 31.44 64.8289 31.352 64.3409 31.352C63.8289 31.352 63.3649 31.444 62.9489 31.628C62.5329 31.812 62.1809 32.072 61.8929 32.408C61.6049 32.744 61.3809 33.14 61.2209 33.596C61.0689 34.044 60.9929 34.536 60.9929 35.072C60.9929 35.64 61.0729 36.16 61.2329 36.632C61.3929 37.096 61.6249 37.496 61.9289 37.832C62.2329 38.168 62.6009 38.428 63.0329 38.612C63.4729 38.796 63.9729 38.888 64.5329 38.888C65.2209 38.888 65.8249 38.756 66.3449 38.492C66.8729 38.22 67.2809 37.864 67.5689 37.424L67.2089 38.552V35.96H68.0729V38.144C67.6969 38.632 67.2089 39.016 66.6089 39.296C66.0089 39.568 65.3169 39.704 64.5329 39.704ZM64.2089 36.152V35.384H68.8529V36.152H64.2089ZM86.459 39.704C85.699 39.704 85.039 39.568 84.479 39.296C83.919 39.024 83.455 38.664 83.087 38.216C82.719 37.768 82.443 37.28 82.259 36.752C82.075 36.224 81.983 35.708 81.983 35.204V34.988C81.983 34.452 82.075 33.92 82.259 33.392C82.451 32.856 82.735 32.372 83.111 31.94C83.487 31.508 83.955 31.164 84.515 30.908C85.075 30.644 85.723 30.512 86.459 30.512C87.203 30.512 87.851 30.644 88.403 30.908C88.963 31.164 89.431 31.508 89.807 31.94C90.183 32.372 90.463 32.856 90.647 33.392C90.839 33.92 90.935 34.452 90.935 34.988V35.216C90.935 35.72 90.843 36.236 90.659 36.764C90.483 37.284 90.207 37.768 89.831 38.216C89.463 38.664 88.999 39.024 88.439 39.296C87.879 39.568 87.219 39.704 86.459 39.704ZM86.459 38.864C87.019 38.864 87.519 38.764 87.959 38.564C88.399 38.356 88.771 38.076 89.075 37.724C89.379 37.364 89.611 36.96 89.771 36.512C89.931 36.064 90.011 35.596 90.011 35.108C90.011 34.596 89.931 34.116 89.771 33.668C89.611 33.22 89.375 32.824 89.063 32.48C88.759 32.128 88.387 31.852 87.947 31.652C87.507 31.452 87.011 31.352 86.459 31.352C85.915 31.352 85.423 31.452 84.983 31.652C84.543 31.852 84.167 32.128 83.855 32.48C83.551 32.824 83.315 33.22 83.147 33.668C82.987 34.116 82.907 34.596 82.907 35.108C82.907 35.596 82.987 36.064 83.147 36.512C83.307 36.96 83.539 37.364 83.843 37.724C84.147 38.076 84.519 38.356 84.959 38.564C85.407 38.764 85.907 38.864 86.459 38.864ZM107.833 39.704C107.097 39.704 106.477 39.588 105.973 39.356C105.469 39.116 105.085 38.788 104.821 38.372C104.565 37.948 104.437 37.472 104.437 36.944H105.349C105.349 37.28 105.429 37.596 105.589 37.892C105.757 38.18 106.021 38.416 106.381 38.6C106.749 38.776 107.233 38.864 107.833 38.864C108.385 38.864 108.841 38.784 109.201 38.624C109.569 38.464 109.841 38.248 110.017 37.976C110.201 37.704 110.293 37.4 110.293 37.064C110.293 36.64 110.125 36.288 109.789 36.008C109.461 35.72 108.965 35.548 108.301 35.492L107.293 35.396C106.541 35.332 105.941 35.1 105.493 34.7C105.053 34.292 104.833 33.756 104.833 33.092C104.833 32.588 104.953 32.144 105.193 31.76C105.433 31.376 105.773 31.072 106.213 30.848C106.661 30.624 107.197 30.512 107.821 30.512C108.453 30.512 108.993 30.628 109.441 30.86C109.897 31.084 110.245 31.396 110.485 31.796C110.725 32.196 110.845 32.66 110.845 33.188H109.933C109.933 32.868 109.861 32.568 109.717 32.288C109.573 32.008 109.345 31.784 109.033 31.616C108.721 31.44 108.317 31.352 107.821 31.352C107.349 31.352 106.957 31.432 106.645 31.592C106.341 31.752 106.113 31.964 105.961 32.228C105.817 32.492 105.745 32.78 105.745 33.092C105.745 33.484 105.885 33.816 106.165 34.088C106.445 34.36 106.849 34.516 107.377 34.556L108.385 34.652C108.977 34.7 109.481 34.832 109.897 35.048C110.321 35.256 110.645 35.532 110.869 35.876C111.093 36.212 111.205 36.608 111.205 37.064C111.205 37.576 111.065 38.032 110.785 38.432C110.513 38.832 110.125 39.144 109.621 39.368C109.117 39.592 108.521 39.704 107.833 39.704ZM126.669 39.5L124.245 30.74H125.181L127.377 38.912L126.957 38.672H128.121L127.665 38.912L129.453 31.124H130.317L128.349 39.5H126.669ZM131.937 39.5L129.777 31.124H130.665L132.657 38.912L132.213 38.672H133.401L132.945 38.912L134.925 30.74H135.837L133.617 39.5H131.937ZM148.303 39.5L151.531 30.74H153.163L156.499 39.5H155.563L152.455 31.316L152.947 31.568H151.687L152.203 31.316L149.215 39.5H148.303ZM150.031 36.716L150.331 35.888H154.399L154.711 36.716H150.031ZM170.264 39.5V30.74H171.452L174.212 36.8H174.428L177.176 30.74H178.388V39.5H177.476V31.76L177.548 31.772L174.884 37.652H173.684L171.008 31.772L171.104 31.76V39.5H170.264ZM193.151 39.5V30.74H194.063V39.5H193.151Z" fill="black"/>
</svg>
