<svg width="248" height="56" viewBox="0 0 248 56" fill="none" xmlns="http://www.w3.org/2000/svg">
<path d="M0 55.9995H40.4277C50.6339 55.9996 58.9077 47.7258 58.9077 37.5196C58.9077 27.3133 50.6339 19.0396 40.4277 19.0396L16.6424 19.0396L0 55.9995Z" fill="#0768A9"/>
<path d="M58.9077 3.5343e-06L18.48 0C8.27378 -8.92256e-07 8.92256e-07 8.27378 0 18.48C-8.92256e-07 28.6862 8.27378 36.96 18.48 36.96H42.2653L58.9077 3.5343e-06Z" fill="#FFCC00"/>
<path d="M85.0632 32.172C82.7784 32.172 80.852 31.8136 79.284 31.0968C77.7384 30.38 76.5624 29.4056 75.756 28.1736C74.972 26.9192 74.58 25.4856 74.58 23.8728H80.628C80.628 24.4552 80.7848 24.9928 81.0984 25.4856C81.4344 25.956 81.9272 26.3256 82.5768 26.5944C83.2264 26.8632 84.0552 26.9976 85.0632 26.9976C85.9368 26.9976 86.676 26.8856 87.2808 26.6616C87.908 26.4376 88.3784 26.124 88.692 25.7208C89.028 25.3176 89.196 24.836 89.196 24.276C89.196 23.5592 88.8936 23.0104 88.2888 22.6296C87.684 22.2264 86.6648 21.9688 85.2312 21.8568L83.652 21.7224C81.1208 21.4984 79.1048 20.7032 77.604 19.3368C76.1032 17.9704 75.3528 16.156 75.3528 13.8936C75.3528 12.2808 75.7224 10.9032 76.4616 9.7608C77.2232 8.6184 78.2872 7.7448 79.6536 7.14C81.02 6.5352 82.6328 6.2328 84.492 6.2328C86.508 6.2328 88.2104 6.5688 89.5992 7.2408C91.0104 7.9128 92.0856 8.8648 92.8248 10.0968C93.564 11.3064 93.9336 12.7176 93.9336 14.3304H87.8856C87.8856 13.7928 87.7512 13.3 87.4824 12.852C87.2136 12.404 86.8216 12.0568 86.3064 11.8104C85.8136 11.5416 85.2088 11.4072 84.492 11.4072C83.82 11.4072 83.2488 11.5192 82.7784 11.7432C82.3304 11.9448 81.9832 12.236 81.7368 12.6168C81.5128 12.9976 81.4008 13.4232 81.4008 13.8936C81.4008 14.5208 81.6136 15.0584 82.0392 15.5064C82.4648 15.9544 83.204 16.2232 84.2568 16.3128L85.836 16.4472C87.6728 16.604 89.2968 17.0072 90.708 17.6568C92.1192 18.284 93.228 19.1464 94.0344 20.244C94.8408 21.3416 95.244 22.6856 95.244 24.276C95.244 25.8664 94.8296 27.2552 94.0008 28.4424C93.1944 29.6296 92.0296 30.548 90.5064 31.1976C89.0056 31.8472 87.1912 32.172 85.0632 32.172ZM96.1268 31.5L103.989 6.972H114.002L122.133 31.5H115.682L109.365 11.34L111.146 12.012H106.711L108.525 11.34L102.376 31.5H96.1268ZM102.544 25.8216L104.426 20.7144H113.733L115.615 25.8216H102.544ZM124.89 31.5V6.7704H131.139V31.5H124.89ZM139.674 31.5L132.786 21.084H139.573L146.864 31.5H139.674ZM129.56 23.9736V19.1688H135.44C136.179 19.1688 136.818 19.0232 137.355 18.732C137.893 18.4408 138.307 18.0264 138.599 17.4888C138.912 16.9512 139.069 16.324 139.069 15.6072C139.069 14.868 138.912 14.2296 138.599 13.692C138.307 13.1544 137.893 12.74 137.355 12.4488C136.818 12.1576 136.179 12.012 135.44 12.012H129.56V6.7704H135.071C137.199 6.7704 139.035 7.0952 140.581 7.7448C142.127 8.372 143.314 9.3128 144.143 10.5672C144.971 11.7992 145.386 13.3336 145.386 15.1704V15.708C145.386 17.5448 144.96 19.0792 144.109 20.3112C143.28 21.5208 142.093 22.4392 140.547 23.0664C139.024 23.6712 137.199 23.9736 135.071 23.9736H129.56ZM153.945 31.5V11.7432H160.195V31.5H153.945ZM147.225 12.4152V6.972H166.915V12.4152H147.225ZM185.663 31.5V6.972H191.913V31.5H185.663ZM170.073 31.5V6.972H176.322V31.5H170.073ZM175.247 21.8568V16.4136H186.738V21.8568H175.247ZM194.663 31.5L202.525 6.972H212.538L220.669 31.5H214.218L207.901 11.34L209.682 12.012H205.247L207.061 11.34L200.912 31.5H194.663ZM201.08 25.8216L202.962 20.7144H212.269L214.151 25.8216H201.08ZM239.755 31.5L231.792 20.0424H228.466L238.378 6.972H245.568L236.698 18.6648V16.2792L247.282 31.5H239.755ZM223.426 31.5V6.972H229.675V31.5H223.426Z" fill="#0768A9"/>
<path d="M80.307 49.7539C79.411 49.7539 78.6145 49.6045 77.9176 49.3059C77.2307 49.0072 76.6533 48.599 76.1854 48.0813C75.7174 47.5537 75.359 46.9514 75.1102 46.2744C74.8712 45.5875 74.7518 44.8657 74.7518 44.1091V43.8403C74.7518 43.1434 74.8662 42.4664 75.0952 41.8093C75.3342 41.1523 75.6776 40.5599 76.1256 40.0323C76.5736 39.5046 77.1311 39.0865 77.7982 38.7779C78.4652 38.4692 79.2218 38.3149 80.068 38.3149C80.9541 38.3149 81.7406 38.4842 82.4275 38.8227C83.1144 39.1512 83.667 39.6141 84.0851 40.2115C84.5132 40.8088 84.7621 41.5007 84.8318 42.2872H83.6819C83.6022 41.65 83.3882 41.1124 83.0398 40.6744C82.7013 40.2364 82.2732 39.9078 81.7555 39.6888C81.2378 39.4698 80.6753 39.3603 80.068 39.3603C79.4309 39.3603 78.8534 39.4748 78.3358 39.7037C77.8181 39.9327 77.38 40.2563 77.0216 40.6744C76.6632 41.0925 76.3845 41.5853 76.1854 42.1528C75.9962 42.7103 75.9016 43.3226 75.9016 43.9896C75.9016 44.6964 76.0012 45.3436 76.2003 45.9309C76.3994 46.5084 76.6881 47.0061 77.0664 47.4243C77.4447 47.8424 77.9027 48.166 78.4403 48.3949C78.9878 48.6239 79.6101 48.7384 80.307 48.7384C81.1631 48.7384 81.9148 48.5741 82.5619 48.2456C83.219 47.9071 83.7267 47.4641 84.0851 46.9165L83.6371 48.3203V45.0947H84.7123V47.8125C84.2444 48.4198 83.6371 48.8977 82.8904 49.2461C82.1438 49.5846 81.2826 49.7539 80.307 49.7539ZM79.9038 45.3336V44.3779H85.683V45.3336H79.9038ZM107.593 49.7539C106.647 49.7539 105.826 49.5846 105.129 49.2461C104.432 48.9076 103.854 48.4596 103.396 47.9021C102.938 47.3446 102.595 46.7373 102.366 46.0803C102.137 45.4232 102.023 44.7811 102.023 44.1539V43.8851C102.023 43.218 102.137 42.556 102.366 41.8989C102.605 41.2319 102.958 40.6296 103.426 40.092C103.894 39.5544 104.477 39.1263 105.174 38.8077C105.87 38.4792 106.677 38.3149 107.593 38.3149C108.519 38.3149 109.325 38.4792 110.012 38.8077C110.709 39.1263 111.291 39.5544 111.759 40.092C112.227 40.6296 112.575 41.2319 112.804 41.8989C113.043 42.556 113.163 43.218 113.163 43.8851V44.1688C113.163 44.796 113.048 45.4381 112.819 46.0952C112.6 46.7423 112.257 47.3446 111.789 47.9021C111.331 48.4596 110.754 48.9076 110.057 49.2461C109.36 49.5846 108.538 49.7539 107.593 49.7539ZM107.593 48.7085C108.29 48.7085 108.912 48.5841 109.459 48.3352C110.007 48.0764 110.47 47.7279 110.848 47.2899C111.226 46.8419 111.515 46.3391 111.714 45.7816C111.913 45.2241 112.013 44.6417 112.013 44.0344C112.013 43.3972 111.913 42.7999 111.714 42.2424C111.515 41.6849 111.222 41.1921 110.833 40.764C110.455 40.326 109.992 39.9825 109.444 39.7336C108.897 39.4847 108.28 39.3603 107.593 39.3603C106.916 39.3603 106.303 39.4847 105.756 39.7336C105.208 39.9825 104.74 40.326 104.352 40.764C103.974 41.1921 103.68 41.6849 103.471 42.2424C103.272 42.7999 103.172 43.3972 103.172 44.0344C103.172 44.6417 103.272 45.2241 103.471 45.7816C103.67 46.3391 103.959 46.8419 104.337 47.2899C104.716 47.7279 105.178 48.0764 105.726 48.3352C106.284 48.5841 106.906 48.7085 107.593 48.7085ZM134.192 49.7539C133.276 49.7539 132.504 49.6095 131.877 49.3208C131.25 49.0221 130.772 48.614 130.444 48.0963C130.125 47.5686 129.966 46.9763 129.966 46.3192H131.101C131.101 46.7373 131.2 47.1306 131.399 47.4989C131.608 47.8573 131.937 48.151 132.385 48.38C132.843 48.599 133.445 48.7085 134.192 48.7085C134.879 48.7085 135.446 48.609 135.894 48.4099C136.352 48.2108 136.691 47.942 136.91 47.6035C137.139 47.265 137.253 46.8867 137.253 46.4685C137.253 45.9409 137.044 45.5028 136.626 45.1544C136.218 44.796 135.6 44.582 134.774 44.5123L133.52 44.3928C132.584 44.3132 131.837 44.0244 131.28 43.5267C130.732 43.0189 130.458 42.3519 130.458 41.5256C130.458 40.8984 130.608 40.3459 130.906 39.868C131.205 39.3901 131.628 39.0118 132.176 38.7331C132.733 38.4543 133.4 38.3149 134.177 38.3149C134.963 38.3149 135.635 38.4593 136.193 38.748C136.76 39.0268 137.193 39.415 137.492 39.9128C137.791 40.4106 137.94 40.988 137.94 41.6451H136.805C136.805 41.2468 136.716 40.8735 136.536 40.5251C136.357 40.1766 136.073 39.8979 135.685 39.6888C135.297 39.4698 134.794 39.3603 134.177 39.3603C133.589 39.3603 133.102 39.4598 132.713 39.6589C132.335 39.858 132.051 40.1219 131.862 40.4504C131.683 40.7789 131.593 41.1373 131.593 41.5256C131.593 42.0134 131.768 42.4266 132.116 42.7651C132.464 43.1036 132.967 43.2977 133.624 43.3475L134.879 43.4669C135.615 43.5267 136.243 43.6909 136.76 43.9597C137.288 44.2186 137.691 44.562 137.97 44.9901C138.249 45.4083 138.388 45.9011 138.388 46.4685C138.388 47.1057 138.214 47.6732 137.865 48.1709C137.527 48.6687 137.044 49.057 136.417 49.3357C135.79 49.6145 135.048 49.7539 134.192 49.7539ZM157.631 49.5L154.615 38.5987H155.78L158.512 48.7683L157.99 48.4696H159.438L158.871 48.7683L161.096 39.0765H162.171L159.722 49.5H157.631ZM164.187 49.5L161.499 39.0765H162.604L165.083 48.7683L164.531 48.4696H166.009L165.442 48.7683L167.906 38.5987H169.04L166.278 49.5H164.187ZM184.554 49.5L188.572 38.5987H190.602L194.754 49.5H193.589L189.721 39.3155L190.334 39.6291H188.766L189.408 39.3155L185.689 49.5H184.554ZM186.705 46.0355L187.078 45.0051H192.141L192.529 46.0355H186.705ZM211.883 49.5V38.5987H213.361L216.796 46.14H217.065L220.484 38.5987H221.993V49.5H220.858V39.868L220.947 39.8829L217.632 47.2003H216.139L212.809 39.8829L212.928 39.868V49.5H211.883ZM240.365 49.5V38.5987H241.5V49.5H240.365Z" fill="white"/>
</svg>
